<svg width="38" height="26" viewBox="0 0 38 26" fill="none" xmlns="http://www.w3.org/2000/svg">
<g clip-path="url(#clip0_12:76)">
<path d="M37.5369 11.6197L26.4219 0.463174C26.1228 0.176455 25.7234 0.0182037 25.3091 0.0222942C24.8948 0.0263846 24.4986 0.192492 24.2053 0.48506C23.9119 0.777629 23.7448 1.17341 23.7396 1.58768C23.7344 2.00195 23.8916 2.40179 24.1775 2.70161L32.5316 11.0854H1.58532C1.36937 11.0721 1.153 11.1032 0.949522 11.1768C0.746048 11.2503 0.559779 11.3647 0.402184 11.5129C0.244589 11.6612 0.119004 11.8401 0.0331596 12.0387C-0.0526843 12.2373 -0.0969696 12.4514 -0.0969696 12.6677C-0.0969696 12.8841 -0.0526843 13.0981 0.0331596 13.2967C0.119004 13.4953 0.244589 13.6742 0.402184 13.8225C0.559779 13.9707 0.746048 14.0851 0.949522 14.1586C1.153 14.2322 1.36937 14.2633 1.58532 14.2501H32.6563L24.1834 22.6279C24.0223 22.7712 23.892 22.9458 23.8006 23.1412C23.7093 23.3365 23.6587 23.5485 23.6521 23.7641C23.6455 23.9796 23.6829 24.1943 23.7621 24.3949C23.8413 24.5955 23.9606 24.7778 24.1127 24.9307C24.2648 25.0836 24.4465 25.2039 24.6467 25.2842C24.8469 25.3644 25.0613 25.403 25.2769 25.3975C25.4925 25.392 25.7048 25.3426 25.9006 25.2523C26.0964 25.162 26.2718 25.0327 26.4159 24.8722L37.5309 13.8641C37.6785 13.7169 37.7956 13.5419 37.8755 13.3494C37.9554 13.1568 37.9965 12.9504 37.9965 12.7419C37.9965 12.5335 37.9554 12.327 37.8755 12.1345C37.7956 11.9419 37.6785 11.767 37.5309 11.6197H37.5369Z" fill="white"/>
</g>
<defs>
<clipPath id="clip0_12:76">
<rect width="38" height="25.3353" fill="white"/>
</clipPath>
</defs>
</svg>
