<svg width="17" height="24" viewBox="0 0 17 24" fill="none" xmlns="http://www.w3.org/2000/svg">
<path d="M12.4731 16.7605C12.614 16.8386 12.7693 16.8882 12.9299 16.9064C13.0904 16.9246 13.2531 16.911 13.4082 16.8664C13.5634 16.8218 13.708 16.7471 13.8335 16.6467C13.959 16.5463 14.0629 16.4222 14.1391 16.2816C15.7031 13.2887 17 10.2143 17 8.38025C17 6.15767 16.1045 4.02612 14.5104 2.45452C12.9163 0.882917 10.7543 0 8.5 0C6.24566 0 4.08365 0.882917 2.48959 2.45452C0.895533 4.02612 0 6.15767 0 8.38025C0 11.9718 5.27971 20.3377 7.63057 23.4647C7.75757 23.6332 7.9233 23.7696 8.11416 23.8626C8.30502 23.9556 8.51555 24.0027 8.72845 23.9999C8.94134 23.9971 9.15052 23.9445 9.33879 23.8465C9.52706 23.7484 9.68905 23.6078 9.81143 23.436C10.3311 22.7033 10.9966 21.6929 11.7203 20.5244C11.8042 20.386 11.859 20.2325 11.8817 20.0728C11.9044 19.9131 11.8944 19.7506 11.8523 19.5948C11.8101 19.439 11.7368 19.2931 11.6365 19.1657C11.5363 19.0384 11.4112 18.9321 11.2686 18.8532C10.9937 18.7062 10.672 18.6689 10.3701 18.7492C10.0682 18.8294 9.80904 19.0209 9.64629 19.2842C9.32086 19.8109 9.00029 20.3185 8.67486 20.7974C5.91114 16.8228 2.42857 10.631 2.42857 8.38025C2.42857 6.7927 3.06824 5.27016 4.20685 4.14759C5.34547 3.02501 6.88976 2.39436 8.5 2.39436C10.1102 2.39436 11.6545 3.02501 12.7931 4.14759C13.9318 5.27016 14.5714 6.7927 14.5714 8.38025C14.5714 9.70673 13.4446 12.3836 11.9826 15.1707C11.8376 15.4474 11.8072 15.7687 11.8978 16.0671C11.9884 16.3654 12.1929 16.6175 12.4683 16.7701L12.4731 16.7605Z" fill="#3C403D"/>
<path d="M8.5 6.70417C8.83623 6.70417 9.16491 6.80247 9.44447 6.98664C9.72404 7.1708 9.94193 7.43257 10.0706 7.73883C10.1993 8.04509 10.2329 8.38208 10.1673 8.7072C10.1017 9.03233 9.93983 9.33097 9.70208 9.56537C9.46433 9.79977 9.16142 9.9594 8.83166 10.0241C8.50189 10.0887 8.16008 10.0555 7.84944 9.92869C7.53881 9.80184 7.2733 9.58701 7.0865 9.31139C6.89971 9.03576 6.8 8.71172 6.8 8.38022C6.8 7.93571 6.97911 7.5094 7.29792 7.19508C7.61673 6.88076 8.04913 6.70417 8.5 6.70417ZM8.5 4.30981C7.68345 4.30981 6.88523 4.54854 6.20629 4.9958C5.52735 5.44306 4.99818 6.07878 4.6857 6.82255C4.37322 7.56632 4.29146 8.38474 4.45076 9.17432C4.61006 9.9639 5.00327 10.6892 5.58066 11.2584C6.15805 11.8277 6.89369 12.2154 7.69456 12.3724C8.49542 12.5295 9.32554 12.4489 10.0799 12.1408C10.8343 11.8327 11.4791 11.311 11.9328 10.6416C12.3864 9.97225 12.6286 9.18527 12.6286 8.38022C12.6273 7.30107 12.1919 6.26648 11.4179 5.50341C10.6439 4.74033 9.59457 4.31108 8.5 4.30981Z" fill="#3C403D"/>
</svg>
