<svg width="25" height="25" viewBox="0 0 25 25" fill="none" xmlns="http://www.w3.org/2000/svg">
<path fill-rule="evenodd" clip-rule="evenodd" d="M21.0581 22.5H3.9418C3.18055 22.5 2.59682 21.8261 2.70432 21.0736L4.13305 11.0736C4.22055 10.4574 4.74806 10 5.37056 10H6.24932V12.5C6.24932 13.19 6.80932 13.75 7.49932 13.75C8.19057 13.75 8.74932 13.19 8.74932 12.5V10H16.2493V12.5C16.2493 13.19 16.8093 13.75 17.4993 13.75C18.1906 13.75 18.7493 13.19 18.7493 12.5V10H19.6293C20.2518 10 20.7793 10.4574 20.8668 11.0736L22.2956 21.0736C22.4031 21.8261 21.8193 22.5 21.0581 22.5ZM8.74932 6.25C8.74932 4.1825 10.4318 2.5 12.4993 2.5C14.5681 2.5 16.2493 3.75 16.2493 6.25V7.5H8.74932V6.25ZM24.9743 22.1463L23.1881 9.6463C23.0131 8.41505 21.9581 7.5 20.7131 7.5H18.7493V6.25C18.7493 2.5 15.9456 0 12.4993 0C9.05431 0 6.24932 2.80375 6.24932 6.25V7.5H4.66807C3.42432 7.5 1.9868 8.41505 1.81055 9.6463L0.0255601 22.1463C-0.18944 23.6526 0.979305 25 2.50056 25H22.4993C24.0206 25 25.1893 23.6526 24.9743 22.1463Z" fill="#3C403D"/>
</svg>
